<svg xmlns="http://www.w3.org/2000/svg" viewBox="0 0 64 64" fill="none">
  <circle cx="32" cy="32" r="28" fill="#fff" />
  <path
    d="M217 -12Q167 -12 126 -2.5Q85 7 52 23L48 144L107 144L134 22L86 22L86 72Q110 56 144 46.5Q178 37 218 37Q258 37 282.5 48Q307 59 318.5 77.5Q330 96 330 118Q330 151 307 170Q284 189 234 205L201 217Q154 232 121 251.5Q88 271 70.5 298Q53 325 53 362Q53 402 75.5 434.5Q98 467 140.5 485.5Q183 504 241 504Q285 504 324 494Q363 484 392 468L390 355L332 355L310 464L351 464L351 423Q327 439 299.5 446.5Q272 454 241 454Q190 454 165.5 434Q141 414 141 383Q141 352 162.5 334.5Q184 317 236 299L262 290Q315 273 350.5 251Q386 229 403 201.5Q420 174 420 137Q420 95 396 61.5Q372 28 327 8Q282 -12 217 -12Z"
    fill="#000"
    transform="matrix(0.08 0 0 -0.08 13.28 51.68)"
  />
</svg>
