<?xml version="1.0" encoding="UTF-8"?>
<svg xmlns="http://www.w3.org/2000/svg" xmlns:xlink="http://www.w3.org/1999/xlink" width="4096pt" height="4096pt" viewBox="0 0 4096 4096" version="1.2">
<g id="surface1">
<path style=" stroke:none;fill-rule:nonzero;fill:rgb(0%,0%,0%);fill-opacity:1;" d="M 2445.109375 849.609375 C 2445.109375 1090.082031 2281.886719 1258.628906 2048 1258.628906 C 1814.109375 1258.628906 1650.886719 1090.082031 1650.886719 849.609375 C 1650.886719 777.058594 1670.628906 710.429688 1703.160156 652.609375 C 1644.109375 960.140625 1886.46875 1088.550781 2048 1088.550781 C 2209.527344 1088.550781 2451.886719 960.140625 2392.847656 652.609375 C 2425.367188 710.429688 2445.109375 777.058594 2445.109375 849.609375 "/>
<path style=" stroke:none;fill-rule:nonzero;fill:rgb(0%,0%,0%);fill-opacity:1;" d="M 1522.140625 2367.777344 C 1577.707031 2393.300781 1610.738281 2375.8125 1648.625 2380.917969 C 1683.730469 2385.648438 1745.335938 2417.089844 1802.273438 2459.570312 C 1804.832031 2461.476562 1808.027344 2458.457031 1806.738281 2455.34375 L 1756.160156 2333.242188 C 1748.636719 2315.085938 1734.683594 2301.21875 1717.628906 2294.953125 L 1363.242188 2164.761719 C 1360.546875 2163.773438 1358.207031 2167.054688 1359.6875 2169.746094 C 1378.328125 2203.613281 1454.921875 2336.902344 1522.140625 2367.777344 M 615.613281 2332.1875 C 612.503906 2330.4375 613.074219 2325.804688 616.507812 2324.851562 C 680.894531 2306.980469 860.726562 2248.835938 896.503906 2236.085938 C 899 2235.199219 899.230469 2231.765625 896.882812 2230.546875 L 243.457031 1932.59375 C 240.269531 1931.140625 240.355469 1926.582031 243.597656 1925.253906 C 311.09375 1897.640625 756.054688 1711.414062 857.1875 1560.699219 C 857.390625 1560.390625 857.554688 1560.058594 857.671875 1559.707031 C 973.902344 1210.4375 988.503906 595.234375 974.746094 467.296875 C 974.28125 462.964844 980.097656 461.125 982.21875 464.929688 C 1041.710938 571.679688 1446.085938 1246.050781 1444.832031 1242.757812 C 1401.746094 1129.371094 1401.199219 845.441406 1408.550781 809.621094 C 1408.921875 807.808594 1480.417969 1059.042969 1612.644531 1163.386719 C 2048 1506.945312 2027.636719 1711.632812 2027.636719 1775.667969 C 2027.636719 1945.75 2006.375 1912.582031 1937.496094 1966.15625 C 1910.230469 1987.363281 1941.746094 2007.261719 1955.351562 2043.542969 C 1968.960938 2079.828125 1944.296875 2119.226562 1963.007812 2146.441406 C 1987.683594 2182.335938 2021.339844 2215.710938 2023.03125 2219.515625 C 2023.207031 2219.914062 2023.300781 2220.335938 2023.300781 2220.769531 C 2023.425781 2248.421875 2029.121094 3170.609375 1993.621094 3183.921875 C 1966.410156 3194.125 1874.296875 3134.742188 1839.984375 3100.015625 C 1834.738281 3094.707031 1832.1875 3125.355469 1836.015625 3131.765625 C 1864.320312 3179.152344 1927.085938 3261.585938 1924.457031 3290.503906 C 1919.921875 3340.394531 1830.34375 3355.132812 1823.542969 3395.953125 C 1811.84375 3466.152344 1993.3125 3529.917969 2032.171875 3546.757812 C 2034.972656 3547.96875 2039.730469 3582.597656 2036.707031 3583.039062 C 2003.9375 3587.847656 1854.285156 3551.144531 1737.371094 3483.261719 C 1596.769531 3401.621094 1580.894531 3068.269531 1381.335938 2827.890625 C 1189.796875 2597.171875 697.945312 2378.464844 615.613281 2332.1875 "/>
<path style=" stroke:none;fill-rule:nonzero;fill:rgb(0%,0%,0%);fill-opacity:1;" d="M 2573.859375 2367.777344 C 2518.292969 2393.300781 2485.261719 2375.8125 2447.375 2380.917969 C 2412.269531 2385.648438 2350.664062 2417.089844 2293.726562 2459.570312 C 2291.167969 2461.476562 2287.972656 2458.457031 2289.261719 2455.34375 L 2339.839844 2333.242188 C 2347.363281 2315.085938 2361.316406 2301.21875 2378.371094 2294.953125 L 2732.757812 2164.761719 C 2735.453125 2163.773438 2737.792969 2167.054688 2736.3125 2169.746094 C 2717.671875 2203.613281 2641.078125 2336.902344 2573.859375 2367.777344 M 3480.386719 2332.1875 C 3483.496094 2330.4375 3482.925781 2325.804688 3479.492188 2324.851562 C 3415.105469 2306.980469 3235.273438 2248.835938 3199.496094 2236.085938 C 3197.003906 2235.199219 3196.769531 2231.765625 3199.117188 2230.546875 L 3852.542969 1932.59375 C 3855.730469 1931.140625 3855.644531 1926.582031 3852.402344 1925.253906 C 3784.90625 1897.640625 3339.945312 1711.414062 3238.816406 1560.699219 C 3238.609375 1560.390625 3238.445312 1560.058594 3238.328125 1559.707031 C 3122.097656 1210.4375 3107.496094 595.234375 3121.253906 467.296875 C 3121.71875 462.964844 3115.902344 461.125 3113.78125 464.929688 C 3054.289062 571.679688 2649.914062 1246.050781 2651.167969 1242.757812 C 2694.253906 1129.371094 2694.804688 845.441406 2687.449219 809.621094 C 2687.078125 807.808594 2615.582031 1059.042969 2483.355469 1163.386719 C 2048 1506.945312 2068.363281 1711.632812 2068.363281 1775.667969 C 2068.363281 1945.75 2089.625 1912.582031 2158.503906 1966.15625 C 2185.769531 1987.363281 2154.253906 2007.261719 2140.648438 2043.542969 C 2127.039062 2079.828125 2151.703125 2119.226562 2132.992188 2146.441406 C 2108.316406 2182.335938 2074.660156 2215.710938 2072.96875 2219.515625 C 2072.792969 2219.914062 2072.703125 2220.335938 2072.699219 2220.769531 C 2072.574219 2248.421875 2066.878906 3170.609375 2102.378906 3183.921875 C 2129.589844 3194.125 2221.703125 3134.742188 2256.015625 3100.015625 C 2261.261719 3094.707031 2263.8125 3125.355469 2259.984375 3131.765625 C 2231.679688 3179.152344 2168.914062 3261.585938 2171.542969 3290.503906 C 2176.078125 3340.394531 2265.65625 3355.132812 2272.457031 3395.953125 C 2284.15625 3466.152344 2102.6875 3529.917969 2063.828125 3546.757812 C 2061.027344 3547.96875 2056.273438 3582.597656 2059.292969 3583.039062 C 2092.0625 3587.847656 2241.714844 3551.144531 2358.632812 3483.261719 C 2499.230469 3401.621094 2515.105469 3068.269531 2714.664062 2827.890625 C 2906.203125 2597.171875 3398.054688 2378.464844 3480.386719 2332.1875 "/>
<path style=" stroke:none;fill-rule:nonzero;fill:rgb(0%,0%,0%);fill-opacity:1;" d="M 3763.667969 2108.070312 C 3732.027344 3028.351562 2976.019531 3764.691406 2048.039062 3764.710938 L 2047.957031 3764.710938 C 1119.980469 3764.691406 363.96875 3028.351562 332.328125 2108.070312 C 378.328125 2130.648438 429.269531 2155.332031 474.890625 2176.691406 C 540.359375 2988.148438 1219.648438 3626.261719 2047.957031 3626.28125 L 2048.039062 3626.28125 C 2876.347656 3626.261719 3555.640625 2988.148438 3621.109375 2176.691406 C 3666.730469 2155.332031 3717.667969 2130.648438 3763.667969 2108.070312 "/>
<path style=" stroke:none;fill-rule:nonzero;fill:rgb(0%,0%,0%);fill-opacity:1;" d="M 2931.546875 575.832031 L 2859.179688 693.851562 C 2622.128906 551.550781 2344.640625 469.730469 2048.039062 469.71875 L 2047.957031 469.71875 C 1751.359375 469.730469 1473.867188 551.550781 1236.820312 693.851562 L 1164.449219 575.832031 C 1422.546875 420.589844 1724.828125 331.300781 2047.957031 331.289062 L 2048.039062 331.289062 C 2371.167969 331.300781 2673.449219 420.589844 2931.546875 575.832031 "/>
<path style=" stroke:none;fill-rule:nonzero;fill:rgb(0%,0%,0%);fill-opacity:1;" d="M 354.308594 1766.21875 C 412.429688 1740.328125 469.109375 1710.851562 510.949219 1688.039062 C 572.1875 1425.488281 698.980469 1188.128906 873.117188 994.140625 L 873.117188 994.128906 C 880.527344 923.761719 885.839844 846.148438 889.480469 781.140625 C 612.058594 1034.960938 418.289062 1378.699219 354.308594 1766.21875 "/>
<path style=" stroke:none;fill-rule:nonzero;fill:rgb(0%,0%,0%);fill-opacity:1;" d="M 3206.519531 781.140625 C 3210.160156 846.148438 3215.46875 923.761719 3222.878906 994.128906 L 3222.878906 994.140625 C 3397.019531 1188.128906 3523.808594 1425.488281 3585.046875 1688.039062 C 3626.886719 1710.851562 3683.570312 1740.332031 3741.6875 1766.21875 C 3677.707031 1378.699219 3483.9375 1034.960938 3206.519531 781.140625 "/>
</g>
</svg>
